<svg viewBox="0 0 308 308" width="{{ with .size }}{{ . }}{{ else }}24{{ end }}" height="{{ with .size }}{{ . }}{{ else }}24{{ end }}">
    <path
        d="M301.135 82.438L159.869 19.441c-3.42-1.537-7.329-1.537-10.767 0L7.843 82.438C3.232 84.491.187 89.01.016 94.061c-.165 5.041 2.534 9.751 6.993 12.123l141.257 75.333c1.948 1.045 4.083 1.556 6.224 1.556 2.152 0 4.284-.511 6.235-1.556l141.264-75.333c4.455-2.372 7.157-7.082 6.995-12.123-.193-5.051-3.231-9.57-7.849-11.623z"
    />
    <path
        d="M289.527 138.805l-135.045 72.04-135.023-72.04c-6.464-3.449-14.468-1.002-17.894 5.45-3.45 6.449-1.003 14.451 5.443 17.891L148.265 237.5c1.948 1.038 4.083 1.555 6.224 1.555 2.152 0 4.284-.51 6.235-1.555l141.264-75.354c6.431-3.44 8.875-11.442 5.445-17.891-3.452-6.453-11.462-8.9-17.906-5.45z"
    />
    <path
        d="M289.527 190.476l-135.045 72.016-135.023-72.016c-6.464-3.452-14.468-1.002-17.894 5.441-3.45 6.449-1.003 14.459 5.443 17.894l141.257 75.33c1.948 1.045 4.083 1.562 6.224 1.562 2.152 0 4.284-.51 6.235-1.562l141.264-75.33c6.431-3.435 8.875-11.444 5.445-17.894-3.452-6.443-11.451-8.894-17.906-5.441z"
    />
</svg>
