<svg viewBox="0 0 455 455" width="{{ with .size }}{{ . }}{{ else }}24{{ end }}" height="{{ with .size }}{{ . }}{{ else }}24{{ end }}">
    <path
        d="M0 0h455v455H0z"
        fill="{{ if .color }}#00c300{{ else }}#000000{{ end }}"
    />
    <path
        d="M393.272 219.605c.766-4.035 1.145-7.43 1.319-10.093.288-4.395-.04-10.92-.157-12.963-4.048-70.408-77.096-126.503-166.616-126.503-92.118 0-166.793 59.397-166.793 132.667 0 67.346 63.088 122.97 144.821 131.526 4.997.523 8.6 5.034 8.046 10.027l-3.48 31.322c-.79 7.11 6.562 12.283 13.005 9.173 69.054-33.326 110.346-67.611 135.004-97.314 4.487-5.405 19.118-25.904 22.101-31.288 6.332-11.43 10.697-23.704 12.75-36.554z"
        fill="#ffffff"
    />
    <path
        d="M136.103 229.588v-55.882c0-4.712-3.82-8.532-8.532-8.532s-8.532 3.82-8.532 8.532v64.414c0 4.712 3.82 8.532 8.532 8.532h34.127c4.712 0 8.532-3.82 8.532-8.532s-3.82-8.532-8.532-8.532h-25.595zm52.628 17.064h-3.73c-3.682 0-6.667-2.985-6.667-6.667v-68.144c0-3.682 2.985-6.667 6.667-6.667h3.73c3.682 0 6.667 2.985 6.667 6.667v68.144c0 3.682-2.985 6.667-6.667 6.667zm68.947-72.946v39.351s-34.073-44.443-34.593-45.027c-1.628-1.827-4.027-2.951-6.69-2.85-4.641.176-8.2 4.232-8.2 8.876v64.063c0 4.712 3.82 8.532 8.532 8.532s8.532-3.82 8.532-8.532v-39.112s34.591 44.83 35.099 45.312c1.509 1.428 3.536 2.312 5.773 2.332 4.738.043 8.611-4.148 8.611-8.886v-64.059c0-4.712-3.82-8.532-8.532-8.532-4.712.001-8.532 3.82-8.532 8.532zm81.051 0c0-4.712-3.82-8.532-8.532-8.532H296.07c-4.712 0-8.532 3.82-8.532 8.532v64.414c0 4.712 3.82 8.532 8.532 8.532h34.127c4.712 0 8.532-3.82 8.532-8.532s-3.82-8.532-8.532-8.532h-25.595v-15.144h25.595c4.712 0 8.532-3.82 8.532-8.532s-3.82-8.532-8.532-8.532h-25.595v-15.144h25.595c4.712.002 8.532-3.818 8.532-8.53z"
        fill="{{ if .color }}#00c300{{ else }}#000000{{ end }}"
    />
</svg>
