<svg viewBox="0 0 512 512" width="{{ with .size }}{{ . }}{{ else }}24{{ end }}" height="{{ with .size }}{{ . }}{{ else }}24{{ end }}">
    <path
        d="M480 32H32C14.368 32 0 46.368 0 64v176c0 132.352 107.648 240 240 240h32c132.352 0 240-107.648 240-240V64c0-17.632-14.336-32-32-32zm-73.376 182.624l-128 128C272.384 348.864 264.192 352 256 352s-16.384-3.136-22.624-9.376l-128-128c-12.512-12.512-12.512-32.736 0-45.248s32.736-12.512 45.248 0L256 274.752l105.376-105.376c12.512-12.512 32.736-12.512 45.248 0s12.512 32.736 0 45.248z"
        fill="{{ if .color }}#ef4056{{ else }}#000000{{ end }}"

    />
</svg>
