<svg viewBox="0 0 512 512" {{ with .size }}width="{{ . }}" height="{{ . }}"{{ end }}>
    <path
        d="M448 0H64C28.672 0 0 28.672 0 64v384c0 35.328 28.672 64 64 64h384c35.328 0 64-28.672 64-64V64c0-35.36-28.672-64-64-64zM224 384c0 17.664-14.336 32-32 32H96c-17.664 0-32-14.336-32-32V96c0-17.696 14.336-32 32-32h96c17.664 0 32 14.304 32 32v288zm224-128c0 17.664-14.336 32-32 32h-96c-17.664 0-32-14.336-32-32V96c0-17.696 14.336-32 32-32h96c17.664 0 32 14.304 32 32v160z"
       fill="{{ if .color }}#0079bf{{ else }}#000000{{ end }}"
    />
</svg>
